<?xml version="1.0" encoding="iso-8859-1"?>
<!-- Uploaded to: SVG Repo, www.svgrepo.com, Generator: SVG Repo Mixer Tools -->
<svg version="1.1" id="Layer_1" xmlns="http://www.w3.org/2000/svg" xmlns:xlink="http://www.w3.org/1999/xlink" 
	 viewBox="0 0 512 512" xml:space="preserve">
<polyline style="fill:#ACE3E5;" points="208.09,77.385 137.03,47.742 100.344,135.684 200.188,157.224 208.09,77.385 "/>
<polyline style="fill:#EC589B;" points="224.14,117.93 153.079,88.287 116.393,176.229 216.237,197.768 224.14,117.93 "/>
<polyline style="fill:#C3F6F9;" points="311.685,475.979 327.257,485.291 512,176.495 244.534,16.484 173.213,135.684 "/>
<polyline style="fill:#F4C063;" points="311.685,358.527 351.824,382.537 468.554,187.417 255.443,59.93 210.121,135.684 "/>
<path style="fill:#EC589B;" d="M358.689,213.996c11.867-11.867,29.657-13.316,39.736-3.237
	c12.599,12.599,10.787,34.837-4.047,49.669c-18.541,18.541-58.641,14.696-87.489,5.367c-9.33-28.847-13.176-68.947,5.367-87.489
	c14.833-14.833,37.072-16.645,49.671-4.047C372.005,184.339,370.556,202.129,358.689,213.996z"/>
<rect y="135.684" style="fill:#C3F6F9;" width="311.685" height="359.832"/>
<rect x="31.675" y="167.36" style="fill:#EAA0E3;" width="248.335" height="227.378"/>
<path style="fill:#778082;" d="M88.966,270.255c0,0-10.467,77.959,10.862,118.538c0-14.819,32.781-1.457,42.491-11.166
	c9.709-9.709-3.653-42.491,11.166-42.491c-15.855-0.085,3.093-44.771-8.134-54.299C131.327,268.934,88.966,290.086,88.966,270.255z"
	/>
<path style="fill:#EC589B;" d="M207.148,388.794v5.942H99.832v-5.942c0-14.824,6.006-28.229,15.711-37.947
	c2.154-2.154,4.485-4.118,6.981-5.879c8.755-6.196,19.436-9.832,30.966-9.832c11.669,0,22.464,3.725,31.283,10.047
	C198.317,354.927,207.148,370.828,207.148,388.794z"/>
<circle style="fill:#F9DCA4;" cx="153.853" cy="270.254" r="64.884"/>
<g>
	<path style="fill:#E7C080;" d="M184.772,345.184c-9.199,4.992-19.727,7.83-30.928,7.83c-11.352,0-22.033-2.914-31.321-8.046
		c8.755-6.196,19.436-9.832,30.966-9.832C165.159,335.136,175.954,338.861,184.772,345.184z"/>
	<path style="fill:#E7C080;" d="M189.194,270.254c0-30.752-21.4-56.487-50.114-63.176c4.747-1.106,9.686-1.709,14.771-1.709
		c35.835,0,64.884,29.05,64.884,64.884s-29.05,64.885-64.884,64.885c-5.083,0-10.023-0.603-14.771-1.709
		C167.796,326.741,189.194,301.006,189.194,270.254z"/>
</g>
<path style="fill:#778082;" d="M88.966,270.255c72.013,7.382,110.49-46.141,110.49-46.141c-11.721-11.586-27.829-18.74-45.609-18.74
	C118.016,205.373,88.966,234.423,88.966,270.255z"/>
<g>
	<path style="fill:#4D4D4D;" d="M189.435,280.617c-3.646,0-6.751-2.945-6.957-6.576c-0.223-3.93,3.026-7.368,6.964-7.355
		c3.933,0.013,7.188,3.408,6.964,7.355C196.198,277.675,193.078,280.617,189.435,280.617z"/>
	<path style="fill:#4D4D4D;" d="M140.326,280.617c-3.644,0-6.751-2.938-6.957-6.576c-0.223-3.937,3.023-7.361,6.957-7.361
		c3.934,0,7.186,3.421,6.957,7.361C147.071,277.68,143.975,280.617,140.326,280.617z"/>
</g>
</svg>